<svg xmlns="http://www.w3.org/2000/svg" viewBox="0 0 644.33 471.88"><defs><style>.cls-1{fill:#29d9ef;opacity:0.58;}.cls-2{fill:#4fe1ef;}.cls-3{fill:#3cd5ef;}.cls-4{fill:#fff;}.cls-5{fill:#ccc;}.cls-6{fill:#b3b3b3;}.cls-7{fill:#1b1464;}.cls-8{fill:#f2f2f2;}.cls-9{fill:#00a99d;}.cls-10{fill:#666;}.cls-11{fill:#4d4d4d;}.cls-12{fill:#999;}.cls-13{fill:#603813;}.cls-14{fill:#ffbabd;}.cls-15{fill:#e6e6e6;}.cls-16{fill:#2e3192;}.cls-17{fill:#1a1a1a;}</style></defs><g id="Capa_2" data-name="Capa 2"><g id="Fondo"><path class="cls-1" d="M403.64,5.58C260.33,41.43,269.33,138.43,222.11,136.87c-29.05-1-45.78-14.44-87.74-15C50.65,120.85-8.48,204.43,1,284.15S76.19,411.31,159.33,401.43c46.77-5.57,77.14-50.79,119.29-57.2,56.4-8.56,79.71,46.2,170.83,46.66,120.27.62,206-112,193.35-218.37S520.32-23.61,403.64,5.58Z"/><path class="cls-2" d="M639.33,153.43h-48v-23h-9v-7h-21v7h-8v229s21-13,38-32v-.05C600,318.19,661.67,248.38,639.33,153.43Z"/><rect class="cls-2" x="278.33" y="160.43" width="3" height="51"/><path class="cls-2" d="M354.33,244.43v-45h-134v-45h-113v42h-26v196s37,15,78,9c27-4,44-17,44-17l46-30s33-22,70-5c27.59,12.67,72,36,92,38v-143Z"/><rect class="cls-3" x="131.33" y="207.43" width="21" height="21"/><rect class="cls-3" x="130.33" y="244.43" width="21" height="21"/><rect class="cls-3" x="130.33" y="281.43" width="21" height="21"/><rect class="cls-3" x="130.33" y="318.43" width="21" height="21"/><rect class="cls-3" x="130.33" y="355.43" width="21" height="21"/><rect class="cls-3" x="130.33" y="392.43" width="21" height="10"/><rect class="cls-3" x="170.33" y="207.43" width="21" height="21"/><rect class="cls-3" x="169.33" y="244.43" width="21" height="21"/><rect class="cls-3" x="169.33" y="281.43" width="21" height="21"/><rect class="cls-3" x="169.33" y="318.43" width="21" height="21"/><rect class="cls-3" x="169.33" y="355.43" width="21" height="21"/><polygon class="cls-3" points="179.33 396.43 169.33 399.43 169.33 392.43 189.33 392.43 179.33 396.43"/><rect class="cls-3" x="91.33" y="207.43" width="21" height="21"/><rect class="cls-3" x="90.33" y="244.43" width="21" height="21"/><rect class="cls-3" x="90.33" y="281.43" width="21" height="21"/><rect class="cls-3" x="90.33" y="318.43" width="21" height="21"/><rect class="cls-3" x="90.33" y="355.43" width="21" height="21"/><polygon class="cls-3" points="111.33 400.43 90.33 395.43 90.33 392.43 111.33 392.43 111.33 400.43"/><rect class="cls-3" x="567.33" y="135.43" width="9" height="9"/><rect class="cls-3" x="567.33" y="154.43" width="9" height="9"/><rect class="cls-3" x="567.33" y="172.43" width="9" height="9"/><polygon class="cls-3" points="569.33 348.43 567.33 348.43 567.33 339.43 576.33 339.43 576.33 342.43 569.33 348.43"/><rect class="cls-3" x="567.33" y="321.43" width="9" height="9"/><rect class="cls-3" x="567.33" y="302.43" width="9" height="9"/><rect class="cls-3" x="567.33" y="190.43" width="9" height="9"/><rect class="cls-3" x="567.33" y="209.43" width="9" height="9"/><rect class="cls-3" x="567.33" y="227.43" width="9" height="9"/><rect class="cls-3" x="567.33" y="246.43" width="9" height="9"/><rect class="cls-3" x="567.33" y="265.43" width="9" height="9"/><rect class="cls-3" x="567.33" y="283.43" width="9" height="9"/><rect class="cls-4" x="517.33" y="10.43" width="14" height="371"/><rect class="cls-4" x="322.33" y="29.43" width="14" height="329"/><rect class="cls-4" x="132.33" y="120.43" width="14" height="283"/><rect class="cls-4" x="289.33" y="65.43" width="321" height="1"/><rect class="cls-4" x="30.33" y="173.43" width="614" height="1"/><rect class="cls-4" x="1.33" y="295.43" width="633" height="1"/></g><g id="Mesa"><polygon class="cls-5" points="492.85 443.43 412.4 443.43 399.26 430.29 399.26 334.39 492.85 334.39 492.85 443.43"/><polygon class="cls-6" points="412.4 443.43 399.26 430.29 399.26 334.39 413.22 334.39 412.4 443.43"/><polygon class="cls-5" points="115.91 443.31 196.36 443.31 209.5 430.17 209.5 334.27 115.91 334.27 115.91 443.31"/><polygon class="cls-6" points="196.36 443.31 209.5 430.17 209.5 334.27 195.54 334.27 196.36 443.31"/><rect class="cls-6" x="74.33" y="326.43" width="469" height="8"/><polygon class="cls-5" points="543.33 326.43 74.33 326.43 119.54 292.43 492.85 289.43 543.33 326.43"/><polygon class="cls-7" points="162.66 358.43 145.83 358.43 141.63 353.43 166.86 353.43 162.66 358.43"/><polygon class="cls-7" points="162.57 400.43 145.74 400.43 141.53 395.43 166.77 395.43 162.57 400.43"/><polygon class="cls-7" points="162.11 422.43 145.28 422.43 141.08 417.43 166.31 417.43 162.11 422.43"/><polygon class="cls-7" points="162.11 379.43 145.28 379.43 141.08 374.43 166.31 374.43 162.11 379.43"/><polygon class="cls-7" points="464.3 354.32 447.47 354.32 443.27 349.32 468.5 349.32 464.3 354.32"/><polygon class="cls-7" points="464.21 396.32 447.38 396.32 443.18 391.32 468.41 391.32 464.21 396.32"/><polygon class="cls-7" points="463.75 375.32 446.93 375.32 442.72 370.32 467.96 370.32 463.75 375.32"/><polygon class="cls-7" points="464.32 420.43 447.5 420.43 443.29 415.43 468.53 415.43 464.32 420.43"/><rect class="cls-7" x="345.51" y="191.43" width="124.32" height="85.98" rx="5.5"/><rect class="cls-8" x="351.16" y="196.8" width="113.02" height="63.33"/><ellipse class="cls-8" cx="407.67" cy="194.11" rx="0.94" ry="0.9"/><ellipse class="cls-8" cx="407.67" cy="266.66" rx="3.77" ry="3.58"/><path class="cls-7" d="M421.8,289.05H392.6c-.94-5.82,2.83-11.64,2.83-11.64H419A17.2,17.2,0,0,1,421.8,289.05Z"/><path class="cls-7" d="M424.7,294.43h-35a.44.44,0,0,1-.38-.69l3.28-4.69h29.2l3.29,4.69A.45.45,0,0,1,424.7,294.43Z"/><rect class="cls-9" x="372.83" y="212.03" width="21.66" height="2.69" rx="1.34"/><rect class="cls-9" x="398.26" y="212.03" width="7.53" height="2.69" rx="1.34"/><rect class="cls-9" x="409.56" y="212.03" width="12.24" height="2.69" rx="1.34"/><rect class="cls-9" x="425.57" y="212.03" width="18.84" height="2.69" rx="1.34"/><rect class="cls-9" x="448.17" y="212.03" width="4.71" height="2.69" rx="1.34"/><rect class="cls-9" x="419.92" y="220.09" width="21.66" height="2.69" rx="1.34" transform="translate(861.5 442.86) rotate(-180)"/><rect class="cls-9" x="408.62" y="220.09" width="7.53" height="2.69" rx="1.34" transform="translate(824.77 442.86) rotate(-180)"/><rect class="cls-9" x="392.6" y="220.09" width="12.24" height="2.69" rx="1.34" transform="translate(797.45 442.86) rotate(-180)"/><rect class="cls-9" x="370" y="220.09" width="18.84" height="2.69" rx="1.34" transform="translate(758.84 442.86) rotate(180)"/><rect class="cls-9" x="361.52" y="220.09" width="4.71" height="2.69" rx="1.34" transform="translate(727.76 442.86) rotate(180)"/><rect class="cls-9" x="372.83" y="228.15" width="21.66" height="2.69" rx="1.34"/><rect class="cls-9" x="398.26" y="228.15" width="7.53" height="2.69" rx="1.34"/><rect class="cls-9" x="409.56" y="228.15" width="12.24" height="2.69" rx="1.34"/><rect class="cls-9" x="425.57" y="228.15" width="18.84" height="2.69" rx="1.34"/><rect class="cls-9" x="448.17" y="228.15" width="4.71" height="2.69" rx="1.34"/><rect class="cls-9" x="444.41" y="220.09" width="8.48" height="2.69" rx="1.34"/><rect class="cls-9" x="360.58" y="228.15" width="8.48" height="2.69" rx="1.34"/><path class="cls-7" d="M430.77,318.43h-123a.7.7,0,0,1-.67-1l5.45-12.62a.72.72,0,0,1,.68-.42H425.32a.72.72,0,0,1,.67.42l5.46,12.62A.7.7,0,0,1,430.77,318.43Z"/><path class="cls-7" d="M466.42,310.08c1.69,2.72,2.79,7.61-.3,8.24-2.55.52-5.37.44-9.32-3.22-1.36-1.25-6.49-6.08-5.07-8.17.81-1.19,3.78-3.22,5.73-3.21C461,303.74,464.61,307.16,466.42,310.08Z"/><rect class="cls-6" x="270.33" y="393.43" width="9" height="37"/><rect class="cls-10" x="306.33" y="280.43" width="12" height="95" transform="translate(21.15 -18.91) rotate(3.59)"/><path class="cls-10" d="M329.4,395.43H218.51a4.92,4.92,0,0,1-4-2c-2.56-3.59-3.2-10-3.2-10h126s-1.26,6.27-3.77,9.87A5.06,5.06,0,0,1,329.4,395.43Z"/><path class="cls-11" d="M337.33,383.43h-126s.52-5.75,2.4-9.31a5.11,5.11,0,0,1,4.53-2.69H332.11a5.22,5.22,0,0,1,5.22,5.21Z"/><path class="cls-11" d="M347.69,345.36a2.51,2.51,0,0,1-2.46,2.07h-79a8,8,0,0,1-8-9.61l17.47-102.27a9.87,9.87,0,0,1,9.54-8.12h78.56a3.85,3.85,0,0,1,3.8,4.48Z"/><rect class="cls-10" x="268.33" y="424.43" width="13" height="16" rx="0.51"/><path class="cls-10" d="M272.54,438.54l-1.78-8.82L204.81,447.3a.56.56,0,0,0-.41.62l.93,6.51h2v-2.72a.34.34,0,0,1,.27-.34Z"/><circle class="cls-11" cx="206.33" cy="459.43" r="7"/><circle class="cls-6" cx="206.33" cy="459.43" r="4.67"/><path class="cls-10" d="M278.34,438.51l1.77-8.82,66,17.59a.52.52,0,0,1,.37.56l-.94,6.56h-2v-2.6a.49.49,0,0,0-.39-.48Z"/><circle class="cls-11" cx="344.55" cy="459.4" r="7"/><circle class="cls-6" cx="344.55" cy="459.4" r="4.67"/><rect class="cls-10" x="273.33" y="439.43" width="3" height="8"/><circle class="cls-11" cx="274.6" cy="453.31" r="7"/><circle class="cls-6" cx="274.6" cy="453.31" r="4.67"/><path class="cls-12" d="M347.68,345.39a2.3,2.3,0,0,1-2.69,1.88,7.74,7.74,0,0,1-5.66-3.84c-6-11,3.94-36.08,6-42,.19-.58-2.8-45.7,12.25-70.5,1.27-2.08,3.64-3,5.84-3.37a3.7,3.7,0,0,1,4.15,4.38Z"/><path class="cls-11" d="M265.48,345.5a2.31,2.31,0,0,1-2.69,1.88,7.74,7.74,0,0,1-5.67-3.84c-6-11,3.94-36.08,6-42,.2-.58-2.79-45.7,12.26-70.5,1.26-2.08,3.64-3,5.83-3.37a3.69,3.69,0,0,1,4.15,4.38Z"/><ellipse class="cls-8" cx="137.86" cy="309.98" rx="13.54" ry="3.16"/><ellipse class="cls-8" cx="137.86" cy="278.08" rx="13.54" ry="3.16"/><ellipse class="cls-13" cx="138.16" cy="280.19" rx="13.24" ry="3.16"/><path class="cls-8" d="M150.19,311H125.5a1.19,1.19,0,0,1-1.19-1.19V277.93c6.32,1.5,20.17,1.8,27.09,0v31.89A1.21,1.21,0,0,1,150.19,311Z"/><path class="cls-8" d="M150.8,281.24v6a5.62,5.62,0,0,1,0,11.19v6c5.77,0,10.53-5.23,10.53-11.59S156.57,281.24,150.8,281.24Z"/></g><g id="persona"><path class="cls-11" d="M208.4,463.2c-.42,1.33-.1,6.32-.1,6.32l-40.82,2.36c-6.42-5.95.1-12.65.1-12.65l12.77-4.35,12.84-6.16,13.66,0S209.62,459.26,208.4,463.2Z"/><path class="cls-11" d="M243.33,463.2c-.41,1.33-.09,6.32-.09,6.32l-40.83,2.36c-6.41-5.95-1.23-13.23-1.23-13.23l14.1-3.77,12.85-6.16,13.65,0S244.56,459.26,243.33,463.2Z"/><path class="cls-14" d="M106.83,225l-6.4-1.8c-1.55-1.78-4.54-6.18-6.11-6.08a1.47,1.47,0,0,0-1.09.66c-.28.47.14,1.48,0,1.81-.82-.25-4.71-.72-5.59-.9C80,217,76.33,215.9,75.45,221.14s3,10.9,12.19,12.86a18.68,18.68,0,0,0,11.19-.9l6.4,1.81Z"/><path class="cls-15" d="M259.54,183.48c-26.38-10.82-64-8.12-84,5.41-5.22,3.54-24.37,27.27-34.13,32-7.45,3.61-30.51,2.6-35.34,2.34a1.29,1.29,0,0,0-1.25.88l-3.81,10a1.48,1.48,0,0,0,.94,2c6.63,1.43,32.46,6.69,41.61,4.17C152,238,172.06,221.89,178.79,216l3.2,48.72c-7.2,15.33-4.8,39.69-4.8,39.69h81.55s2.4-17.14-.8-32.47c0,0,2.5-43.62,3.2-57.74,7.08,5.44,23.35,15.7,24,17.14,1.46,3.29-16.14,22.53-19.49,25.69a1.12,1.12,0,0,0-.27,1.16l4.12,12.4a.87.87,0,0,0,1.43.44c5.55-5.16,32.68-30.88,33.4-40.6C304.85,223.2,272.46,188.78,259.54,183.48Z"/><path class="cls-14" d="M265.94,259.26l-2.62,1.3c-2.2-.27-3.41-4.3-4.58-3.1-.22.23-.06,1.69,0,2.25s-.05.1,0,.46a30.64,30.64,0,0,1-4,3.61c-4.8,2.7-10.4,2.7-8.8,7.21,1.76,5,5.35,12.16,13.57,7.09a22.45,22.45,0,0,0,8.14-8.7l1.48-1.09Z"/><path class="cls-16" d="M243.66,449.62H225.27s-15.3-54.57-.91-144.34h30.39C241.15,365.13,243.66,449.62,243.66,449.62Z"/><path class="cls-16" d="M218,303.47h40c0,11.88-19.84,21.65-40,21.65-19.9,0-39.59-9.93-40-21.65Z"/><path class="cls-16" d="M207.57,449.62H189.18s-16-55-6.39-144.34h36C205.17,365.13,207.57,449.62,207.57,449.62Z"/><path class="cls-14" d="M222,176.26l12.8.91c-.35,6-5.59,10.82-12.8,10.82s-11.79-4.75-12-10.82Z"/><rect class="cls-14" x="214.77" y="166.34" width="15.99" height="18.04"/><path class="cls-14" d="M240,147.36c0,7.66-6.85,19.88-6.85,19.88l-2.77,5.07s-5.23,2.15-8.4,2.15c-11.22,0-11.22-6.32-12.82-9-3.08-5.22-2.84-5.72-2.84-14,0-2,1-7.15,1-9,0-3.18-.64-6.45,0-9,1.8-7.27,4.5-12.2,15.52-12.2C240,121.23,240,132.4,240,147.36Z"/><path class="cls-17" d="M241.15,131.16c-.6-2.72-2.57-6.89-4.35-8.18-3.64-2.65-9.94-4.43-14.84-5.36-3.23-.61-14.14.65-16,2.71s-2.4,9.92-.8,11.73c2.12,2.38,15.16-.63,22.39,1.8,1.47.5,2.77,3.55,2.77,5.57,0,.35-1,4-1,4,0,1-5.39,10.38-7,12s-7,2.18-8,2c-1.72-.33-5.39-.67-7,0a2.25,2.25,0,0,0-1,1,17,17,0,0,0,0,4.28v2.38s-.12,5.18,1,6.34c3.12,3.24,14.54,2.88,18,0,2.14-1.8,4.54-8,5-11,.48-3.22,0-13,0-13l0-.2s2.32,7.52,2.8,10.09c.37,2,.8,8.12.8,8.12l.7-.79a1.32,1.32,0,0,0,.16-.25l1.54-3.47A41.87,41.87,0,0,0,242,146.49C243,140.77,241.48,132.64,241.15,131.16Zm-27.82,32.27a36.81,36.81,0,0,1-4,0s-1-.65-1-1a3.49,3.49,0,0,1,1-2,17.08,17.08,0,0,1,3,0c.88.19,3,1.44,3,2C215.29,162.83,213.88,163.34,213.33,163.43Z"/><path class="cls-14" d="M235.6,149.39c-.24,2.38-2.61,7.63-3,6.15-1.22-4.11-2.47-5.74-2.22-8.11s1-3,2.94-2.71C234.8,145,235.85,147,235.6,149.39Z"/></g></g></svg>